Coordinates
version=1
nRows=29
nColumns=22
inDegrees=yes

Units are S.I. units (second, meters, Newtons, ...)
If the header above contains a line with 'inDegrees', this indicates whether rotational values are in degrees (yes) or radians (no).

endheader
time	pelvis_tilt	pelvis_list	pelvis_rotation	pelvis_tx	pelvis_ty	pelvis_tz	hip_flexion_r	hip_adduction_r	hip_rotation_r	knee_angle_r	ankle_angle_r	subtalar_angle_r	hip_flexion_l	hip_adduction_l	hip_rotation_l	knee_angle_l	ankle_angle_l	subtalar_angle_l	lumbar_extension	lumbar_bending	lumbar_rotation
      0.01000000	     -3.40623456	     -7.73587546	      3.65675840	     -1.07642302	      0.97726836	     -0.26151547	      6.64916037	      8.31695856	     -5.05443575	    -14.54482794	      9.44446961	     -1.09013749	      3.97101205	     -8.07137543	      4.06705773	     -9.48737750	     11.61777032	     -1.61868453	      1.64830163	      6.86394334	     -5.67370071
      0.02000000	     -3.41914578	     -7.72891577	      3.65324639	     -1.07633892	      0.97725581	     -0.26133721	      6.65132142	      8.31935992	     -5.05606777	    -14.53523985	      9.44613789	     -1.08997862	      3.97650439	     -8.07418198	      4.06720939	     -9.48388192	     11.61772694	     -1.61913986	      1.63182810	      6.86441076	     -5.67724220
      0.03000000	     -3.44273282	     -7.72166702	      3.66071881	     -1.07619801	      0.97723460	     -0.26114485	      6.63441088	      8.32512382	     -5.04298619	    -14.47775014	      9.45400322	     -1.08895519	      3.99604713	     -8.07704031	      4.06421423	     -9.48580945	     11.61034984	     -1.62137404	      1.63231270	      6.86507703	     -5.71771696
      0.04000000	     -3.46269333	     -7.71880145	      3.66473483	     -1.07606857	      0.97721658	     -0.26093043	      6.62524703	      8.33573452	     -5.03372876	    -14.43924507	      9.45068874	     -1.08726789	      4.01388171	     -8.08574172	      4.07060799	     -9.49184712	     11.60613449	     -1.62127875	      1.62102106	      6.87225070	     -5.75447334
      0.05000000	     -3.47914841	     -7.71052424	      3.65767628	     -1.07594001	      0.97720108	     -0.26069523	      6.62767564	      8.33976262	     -5.03661483	    -14.42870751	      9.45155157	     -1.08708686	      4.01981829	     -8.09016694	      4.07161720	     -9.48929076	     11.60643505	     -1.62113347	      1.60072592	      6.87406271	     -5.76060155
      0.06000000	     -3.50138513	     -7.71051231	      3.66301029	     -1.07578520	      0.97717969	     -0.26047456	      6.61149585	      8.35467836	     -5.02176010	    -14.37557344	      9.45275186	     -1.08632389	      4.04377362	     -8.10247441	      4.06458060	     -9.50240123	     11.60415981	     -1.61815136	      1.59420476	      6.88577627	     -5.81321691
      0.07000000	     -3.51734470	     -7.70283702	      3.65274068	     -1.07565319	      0.97716364	     -0.26024520	      6.61384211	      8.35863888	     -5.02450407	    -14.36594043	      9.45318006	     -1.08614932	      4.04946433	     -8.10707819	      4.06629083	     -9.50178912	     11.60473129	     -1.61769524	      1.57359670	      6.88894815	     -5.81965556
      0.08000000	     -3.53527073	     -7.70887090	      3.65040509	     -1.07551475	      0.97714429	     -0.26003338	      6.59979751	      8.37953818	     -5.00108184	    -14.32300361	      9.45107503	     -1.08519593	      4.07532128	     -8.12526588	      4.05224097	     -9.52761086	     11.60735530	     -1.61240817	      1.56151065	      6.90908125	     -5.87199674
      0.09000000	     -3.55041229	     -7.70208850	      3.63796995	     -1.07539564	      0.97712869	     -0.25981931	      6.60240083	      8.38338733	     -5.00426304	    -14.31413137	      9.45143533	     -1.08501202	      4.08082425	     -8.13004513	      4.05350374	     -9.52700790	     11.60845236	     -1.61182736	      1.54158858	      6.91192101	     -5.87703438
      0.10000000	     -3.56862887	     -7.71458164	      3.62350635	     -1.07527283	      0.97710881	     -0.25961219	      6.59343497	      8.41108646	     -4.97324236	    -14.27777021	      9.44552025	     -1.08339397	      4.10821670	     -8.15502562	      4.02436084	     -9.55765348	     11.61853354	     -1.60338533	      1.53070915	      6.93825115	     -5.91641219
      0.11000000	     -3.58306969	     -7.70845783	      3.60773362	     -1.07517029	      0.97709354	     -0.25942095	      6.59636511	      8.41416016	     -4.97649027	    -14.26908740	      9.44592666	     -1.08322415	      4.11329975	     -8.15917832	      4.02548908	     -9.55718962	     11.61956533	     -1.60262228	      1.51179667	      6.94116212	     -5.92080930
      0.12000000	     -3.61010482	     -7.72923439	      3.56918455	     -1.07506529	      0.97706418	     -0.25919847	      6.59791570	      8.45230744	     -4.92371063	    -14.23289840	      9.42724322	     -1.08007282	      4.14893952	     -8.19371218	      3.97561933	     -9.59301132	     11.64096979	     -1.58035156	      1.51134901	      6.97447542	     -5.92075962
      0.13000000	     -3.62397384	     -7.72324753	      3.55254160	     -1.07497844	      0.97705293	     -0.25903458	      6.60115501	      8.45392044	     -4.92665600	    -14.22450561	      9.42845345	     -1.08006751	      4.15352066	     -8.19647458	      3.97567356	     -9.59136521	     11.64110812	     -1.57952548	      1.49325727	      6.97685276	     -5.92700274
      0.14000000	     -3.64979591	     -7.72375851	      3.51753713	     -1.07486884	      0.97702930	     -0.25885700	      6.60126293	      8.46630833	     -4.88680234	    -14.19310740	      9.42929537	     -1.08011997	      4.17372516	     -8.20684298	      3.92475530	     -9.60225580	     11.63841148	     -1.56819588	      1.49510688	      6.98762002	     -5.94999264
      0.15000000	     -3.67787735	     -7.72649445	      3.47150160	     -1.07479275	      0.97700552	     -0.25866827	      6.60884876	      8.48190065	     -4.84087234	    -14.16567307	      9.41810997	     -1.07951557	      4.20037537	     -8.21938443	      3.88402429	     -9.62293759	     11.64486182	     -1.54977767	      1.49484185	      6.99875367	     -5.91578736
      0.16000000	     -3.69065449	     -7.72168991	      3.45121710	     -1.07472073	      0.97699447	     -0.25851940	      6.61200778	      8.48434594	     -4.84375941	    -14.15772276	      9.41902335	     -1.07953186	      4.20398302	     -8.22256738	      3.88386638	     -9.62224456	     11.64529783	     -1.54871158	      1.47948921	      6.99849251	     -5.92158037
      0.17000000	     -3.72307165	     -7.72047346	      3.40418891	     -1.07461652	      0.97696668	     -0.25835737	      6.61602478	      8.49429732	     -4.79380421	    -14.12128139	      9.41679056	     -1.08069718	      4.22850796	     -8.23034619	      3.81507899	     -9.63097134	     11.64696232	     -1.53385998	      1.49309468	      7.00555266	     -5.91649214
      0.18000000	     -3.73432105	     -7.71651016	      3.38317388	     -1.07455434	      0.97695614	     -0.25822793	      6.61899021	      8.49654517	     -4.79587080	    -14.11436042	      9.41702924	     -1.08071739	      4.23263147	     -8.23321126	      3.81712636	     -9.63317415	     11.64727267	     -1.53255127	      1.47810419	      7.00527639	     -5.91722901
      0.19000000	     -3.76397257	     -7.71718634	      3.32547755	     -1.07449307	      0.97692961	     -0.25807085	      6.62773000	      8.50898382	     -4.72772727	    -14.08729115	      9.40799092	     -1.08227601	      4.26909924	     -8.24169386	      3.75352488	     -9.66954902	     11.65555701	     -1.51304903	      1.48421959	      7.01312963	     -5.85666676
      0.20000000	     -3.77398987	     -7.71395237	      3.30636994	     -1.07443256	      0.97691831	     -0.25796458	      6.63091540	      8.51068452	     -4.72951198	    -14.08247375	      9.40854989	     -1.08238568	      4.27192496	     -8.24438492	      3.75332741	     -9.66930556	     11.65675936	     -1.51182301	      1.47167012	      7.01291601	     -5.86148035
      0.21000000	     -3.79817476	     -7.71673620	      3.25109442	     -1.07438181	      0.97689003	     -0.25782799	      6.64718568	      8.52383417	     -4.66222787	    -14.07819850	      9.40714501	     -1.08509953	      4.30233200	     -8.25509709	      3.67831843	     -9.70146521	     11.67832406	     -1.48977870	      1.47373322	      7.02283516	     -5.83127415
      0.22000000	     -3.80608615	     -7.71425933	      3.23620570	     -1.07432814	      0.97687885	     -0.25775395	      6.64873416	      8.52433731	     -4.66501975	    -14.07322559	      9.40785908	     -1.08516920	      4.30590696	     -8.25677209	      3.68072659	     -9.70302194	     11.67867559	     -1.48853274	      1.46255276	      7.02357540	     -5.83163525
      0.23000000	     -3.81282758	     -7.71246170	      3.22006287	     -1.07427901	      0.97686878	     -0.25769349	      6.64975713	      8.52490715	     -4.66572944	    -14.06894300	      9.40877581	     -1.08525144	      4.31028941	     -8.25814644	      3.68255324	     -9.70870048	     11.67933121	     -1.48722990	      1.45131512	      7.02564326	     -5.83100544
      0.24000000	     -3.82467403	     -7.72366917	      3.17998374	     -1.07426664	      0.97684512	     -0.25760771	      6.66063313	      8.54398680	     -4.61032670	    -14.07124830	      9.41055836	     -1.08543368	      4.34905312	     -8.27482923	      3.62528021	     -9.76998552	     11.71660068	     -1.46392422	      1.44102086	      7.04282747	     -5.79038415
      0.25000000	     -3.82955554	     -7.72283050	      3.16983457	     -1.07423210	      0.97683519	     -0.25757812	      6.66233221	      8.54405856	     -4.61098273	    -14.06923288	      9.41097731	     -1.08543474	      4.35262829	     -8.27555592	      3.62812792	     -9.77281539	     11.71620872	     -1.46277541	      1.43010631	      7.04460316	     -5.79120913
      0.26000000	     -3.82608546	     -7.72573489	      3.15593932	     -1.07421800	      0.97683303	     -0.25756385	      6.66300552	      8.54801647	     -4.59800691	    -14.08082516	      9.41220842	     -1.08544233	      4.36321060	     -8.27865955	      3.63515023	     -9.80677666	     11.71781643	     -1.45799711	      1.40937498	      7.05325030	     -5.78384969
      0.27000000	     -3.82439319	     -7.73161796	      3.14762534	     -1.07422576	      0.97682349	     -0.25755728	      6.66537665	      8.55504980	     -4.58599399	    -14.08772478	      9.41618631	     -1.08534773	      4.37816263	     -8.28511705	      3.63091696	     -9.83721717	     11.73059479	     -1.45364943	      1.38789867	      7.06167776	     -5.77715912
      0.28000000	     -3.82793293	     -7.73278209	      3.14479828	     -1.07420529	      0.97681395	     -0.25757307	      6.66732851	      8.55504344	     -4.58552028	    -14.08613723	      9.41696593	     -1.08535514	      4.38190711	     -8.28567007	      3.63054639	     -9.83860259	     11.73268834	     -1.45316165	      1.37888903	      7.06392086	     -5.77701414
      0.29000000	     -3.82174906	     -7.74153526	      3.13978768	     -1.07421122	      0.97680630	     -0.25759933	      6.66826990	      8.56347990	     -4.57185743	    -14.09965777	      9.42158386	     -1.08544366	      4.39495151	     -8.29328172	      3.63434005	     -9.87582576	     11.74876017	     -1.45053571	      1.35782603	      7.07645538	     -5.77043091
